<?xml version="1.0" encoding="UTF-8"?>
<svg width="36px" height="22px" viewBox="0 0 36 22" version="1.1" xmlns="http://www.w3.org/2000/svg" xmlns:xlink="http://www.w3.org/1999/xlink">
    <g id="plane" stroke="none" stroke-width="1" fill="none" fill-rule="evenodd">
        <path d="M9,20 L6.5,14.837989" id="Line-5" stroke="#000000" stroke-linecap="square"></path>
        <path d="M9,20 L12.5,15" id="Line-6" stroke="#000000" stroke-linecap="square"></path>
        <path d="M1,10.6473106 L5.5,10.6473106" id="Line-2" stroke="#000000" stroke-width="1.5" stroke-linecap="square"></path>
        <path d="M1.5,1.5 L1.5,19.5" id="Line-3" stroke="#616161" opacity="0.897600446" stroke-linecap="square"></path>
        <circle id="Oval" stroke="#000000" fill="#8B572A" cx="18" cy="6" r="3"></circle>
        <circle id="Oval" stroke="#000000" fill="#D8D8D8" cx="9" cy="19" r="2"></circle>
        <path d="M7,6 C9.64828465,6 12.1482847,6 14.5,6 C16.3325123,8.43421188 19,8.78938418 21,6 C24.1271127,9 26.9158998,8.38196373 29.3663615,4.1458912 C30.796177,0.0888319406 35,1.37620196 35,4.1458912 L35,9.52014093 C27.1897306,13.6293783 18.3448695,15.3528534 14.4693514,16 C11.9889294,16.2076026 9.49914561,15.8742692 7,15 L7,6 Z" id="Path-2" stroke="#000000" fill="#c0392b"></path>
        <path d="M15.5,13.5 L11.5,2.57605962" id="Line-4" stroke="#000000" stroke-width="1.5" stroke-linecap="square"></path>
        <path d="M11.5,13.5 L7.5,2.57605962" id="Line-4" stroke="#000000" stroke-width="1.5" stroke-linecap="square"></path>
        <path d="M7,6 L4.04141777,6 C2.65286074,8.33959901 2.65286074,12.4359008 4.04141777,15 L7,15 L7,6 Z" id="Path-3" stroke="#000000" fill="#3ED53E"></path>
        <rect id="Rectangle" stroke="#000000" fill="#F5A623" x="4.5" y="0.5" width="10" height="2" rx="1"></rect>
        <rect id="Rectangle" stroke-opacity="0.5" stroke="#000000" fill="#F5A623" x="28.5" y="7.5" width="6" height="2" rx="1"></rect>
        <rect id="Rectangle" stroke-opacity="0.5019941" stroke="#000000" fill="#C28219" x="8.5" y="12.5" width="10" height="2" rx="1"></rect>
        <polygon id="Path-4" fill-opacity="0.545891608" fill="#FFFFFF" points="7 9.63371095 7 7.5 3.46379584 7.5 3 9.63371095"></polygon>
    </g>
</svg>